<svg xmlns="http://www.w3.org/2000/svg" viewBox="0 0 900 240" width="900" height="240" role="img" aria-label="YESOD wordmark">
  <defs>
    <style>
      :root{
        --ink:#0b0b0b;   /* rich black */
        --sage:#9CAF9A;  /* quiet sage */
      }

      .line{ stroke:var(--ink); stroke-width:2.6; stroke-linecap:round; stroke-linejoin:round; opacity:.92; }
      .node{ stroke:var(--ink); stroke-width:2.6; fill:none; opacity:.98; }
      .pulse{ fill:var(--sage); filter:url(#glow); opacity:0; }

      @media (prefers-reduced-motion: reduce){
        .anim { display:none; }
      }
    </style>

    <!-- subtle, expensive glow -->
    <filter id="glow" x="-80%" y="-80%" width="260%" height="260%">
      <feGaussianBlur stdDeviation="5" result="b"/>
      <feMerge>
        <feMergeNode in="b"/>
        <feMergeNode in="SourceGraphic"/>
      </feMerge>
    </filter>
  </defs>

  <!-- GRID: each letter lives in 140px width, with 40px gaps, 20px outer margin -->
  <!-- Offsets: 20, 200, 380, 560, 740 -->

  <!-- ===== Y (offset 20) ===== -->
  <g transform="translate(20,0)">
    <line class="line" x1="20"  y1="50"  x2="70"  y2="105"/>
    <line class="line" x1="120" y1="50"  x2="70"  y2="105"/>
    <line class="line" x1="70"  y1="105" x2="70"  y2="200"/>

    <circle class="node" cx="20"  cy="50"  r="9"/>
    <circle class="node" cx="120" cy="50"  r="9"/>
    <circle class="node" cx="70"  cy="105" r="9"/>
    <circle class="node" cx="70"  cy="200" r="9"/>
  </g>

  <!-- ===== E (offset 200) ===== -->
  <g transform="translate(200,0)">
    <line class="line" x1="20" y1="50"  x2="20"  y2="200"/>
    <line class="line" x1="20" y1="50"  x2="120" y2="50"/>
    <line class="line" x1="20" y1="125" x2="110" y2="125"/>
    <line class="line" x1="20" y1="200" x2="120" y2="200"/>

    <circle class="node" cx="20"  cy="50"  r="9"/>
    <circle class="node" cx="120" cy="50"  r="9"/>
    <circle class="node" cx="20"  cy="125" r="9"/>
    <circle class="node" cx="110" cy="125" r="9"/>
    <circle class="node" cx="20"  cy="200" r="9"/>
    <circle class="node" cx="120" cy="200" r="9"/>
  </g>

  <!-- ===== S (offset 380) ===== -->
  <g transform="translate(380,0)">
    <line class="line" x1="120" y1="50"  x2="20"  y2="50"/>
    <line class="line" x1="20"  y1="50"  x2="20"  y2="125"/>
    <line class="line" x1="20"  y1="125" x2="120" y2="125"/>
    <line class="line" x1="120" y1="125" x2="120" y2="200"/>
    <line class="line" x1="120" y1="200" x2="20"  y2="200"/>

    <circle class="node" cx="120" cy="50"  r="9"/>
    <circle class="node" cx="20"  cy="50"  r="9"/>
    <circle class="node" cx="20"  cy="125" r="9"/>
    <circle class="node" cx="120" cy="125" r="9"/>
    <circle class="node" cx="120" cy="200" r="9"/>
    <circle class="node" cx="20"  cy="200" r="9"/>
  </g>

  <!-- ===== O (offset 560) — CLEAN (no X) ===== -->
  <g transform="translate(560,0)">
    <!-- clean circle for the O -->
    <circle class="line" cx="70" cy="125" r="65" fill="none"/>

    <!-- nodes on the circle + center -->
    <circle class="node" cx="70"  cy="60"  r="9"/>
    <circle class="node" cx="135" cy="125" r="9"/>
    <circle class="node" cx="70"  cy="190" r="9"/>
    <circle class="node" cx="5"   cy="125" r="9"/>
    <circle class="node" cx="70"  cy="125" r="9"/>
  </g>

  <!-- ===== D (offset 740) — CLEAN + SYMMETRIC ===== -->
  <g transform="translate(740,0)">
    <!-- spine -->
    <line class="line" x1="20" y1="50" x2="20" y2="200"/>

    <!-- outer arc (perfectly smooth, symmetric) -->
    <path class="line" d="M20 50 A75 75 0 0 1 20 200" fill="none"/>

    <!-- one “node connection” (minimal, no weird angles) -->
    <line class="line" x1="20" y1="125" x2="95" y2="125"/>

    <!-- nodes -->
    <circle class="node" cx="20"  cy="50"  r="9"/>
    <circle class="node" cx="20"  cy="125" r="9"/>
    <circle class="node" cx="20"  cy="200" r="9"/>
    <circle class="node" cx="95"  cy="125" r="9"/>
  </g>

  <!-- ===== ONE SAGE “CHIMING” LIGHT (kept FIRE) ===== -->
  <circle class="pulse anim" cx="40" cy="50" r="7">
    <!-- travel path (hits key nodes with clean rhythm) -->
    <animate attributeName="cx" dur="14s" repeatCount="indefinite"
      values="
      40; 90; 140; 90; 90;
      220; 320; 220; 310; 220; 320;
      500; 400; 400; 500; 500; 400;
      630; 695; 630; 565; 630;
      760; 835; 760; 835; 760
      " />
    <animate attributeName="cy" dur="14s" repeatCount="indefinite"
      values="
      50; 105; 50; 105; 200;
      50; 50; 125; 125; 200; 200;
      50; 50; 125; 125; 200; 200;
      60; 125; 190; 125; 125;
      50; 125; 200; 125; 125
      " />

    <!-- chiming pulse (luxury slow, subtle) -->
    <animate attributeName="opacity" dur="1.8s" repeatCount="indefinite" values="0;0.85;0"/>
    <animate attributeName="r"       dur="1.8s" repeatCount="indefinite" values="6;10;6"/>
  </circle>
</svg>
